REM DIRINDEX 1\2\6,1\2\7,1\2\8,1\2\9,1\3\10,1\3\11,1\4\12,1\4\13,1\4\14,1\5\15,1\5\16,1\5\17
REM DIRNAME folder01,folder02,folder03,folder04,folder05,folder06,folder07,folder08,folder09,folder10,folder11,folder12,folder13,folder14,folder15,folder16,folder17
TITLE ""
FILE "1400_2_sec05_0467_0482.mp3" MP3
  TRACK 01 AUDIO
    TITLE "0:"
    INDEX 01 00:00:00
  TRACK 02 AUDIO
    TITLE "13:cjc029_2518"
    INDEX 01 00:00:17
  TRACK 03 AUDIO
    TITLE "0:"
    INDEX 01 00:01:48
  TRACK 04 AUDIO
    TITLE "14:cjc029_2519"
    INDEX 01 00:01:54
  TRACK 05 AUDIO
    TITLE "0:"
    INDEX 01 00:04:21
  TRACK 06 AUDIO
    TITLE "13:cjc029_2520"
    INDEX 01 00:05:03
  TRACK 07 AUDIO
    TITLE "0:"
    INDEX 01 00:06:28
  TRACK 08 AUDIO
    TITLE "14:cjc029_2521"
    INDEX 01 00:06:31
  TRACK 09 AUDIO
    TITLE "0:"
    INDEX 01 00:09:06
  TRACK 10 AUDIO
    TITLE "13:cjc029_2522"
    INDEX 01 00:09:63
  TRACK 11 AUDIO
    TITLE "0:"
    INDEX 01 00:10:66
  TRACK 12 AUDIO
    TITLE "14:cjc029_2523"
    INDEX 01 00:10:70
  TRACK 13 AUDIO
    TITLE "0:"
    INDEX 01 00:12:12
  TRACK 14 AUDIO
    TITLE "13:cjc029_2524"
    INDEX 01 00:12:73
  TRACK 15 AUDIO
    TITLE "0:"
    INDEX 01 00:14:25
  TRACK 16 AUDIO
    TITLE "14:cjc029_2525"
    INDEX 01 00:14:29
  TRACK 17 AUDIO
    TITLE "0:"
    INDEX 01 00:16:55
  TRACK 18 AUDIO
    TITLE "13:cjc029_2526"
    INDEX 01 00:17:37
  TRACK 19 AUDIO
    TITLE "0:"
    INDEX 01 00:18:42
  TRACK 20 AUDIO
    TITLE "14:cjc029_2527"
    INDEX 01 00:18:46
  TRACK 21 AUDIO
    TITLE "0:"
    INDEX 01 00:23:18
  TRACK 22 AUDIO
    TITLE "13:cjc029_2528"
    INDEX 01 00:24:04
  TRACK 23 AUDIO
    TITLE "0:"
    INDEX 01 00:25:03
  TRACK 24 AUDIO
    TITLE "14:cjc029_2529"
    INDEX 01 00:25:07
  TRACK 25 AUDIO
    TITLE "0:"
    INDEX 01 00:27:12
  TRACK 26 AUDIO
    TITLE "13:cjc029_2530"
    INDEX 01 00:27:71
  TRACK 27 AUDIO
    TITLE "0:"
    INDEX 01 00:29:07
  TRACK 28 AUDIO
    TITLE "14:cjc029_2531"
    INDEX 01 00:29:11
  TRACK 29 AUDIO
    TITLE "0:"
    INDEX 01 00:33:30
  TRACK 30 AUDIO
    TITLE "13:cjc029_2532"
    INDEX 01 00:34:08
  TRACK 31 AUDIO
    TITLE "0:"
    INDEX 01 00:35:27
  TRACK 32 AUDIO
    TITLE "14:cjc029_2533"
    INDEX 01 00:35:33
  TRACK 33 AUDIO
    TITLE "0:"
    INDEX 01 00:37:63
  TRACK 34 AUDIO
    TITLE "13:cjc029_2534"
    INDEX 01 00:38:47
  TRACK 35 AUDIO
    TITLE "0:"
    INDEX 01 00:39:58
  TRACK 36 AUDIO
    TITLE "14:cjc029_2535"
    INDEX 01 00:39:64
  TRACK 37 AUDIO
    TITLE "0:"
    INDEX 01 00:41:00
  TRACK 38 AUDIO
    TITLE "13:cjc029_2536"
    INDEX 01 00:41:61
  TRACK 39 AUDIO
    TITLE "0:"
    INDEX 01 00:43:15
  TRACK 40 AUDIO
    TITLE "14:cjc029_2537"
    INDEX 01 00:43:19
  TRACK 41 AUDIO
    TITLE "0:"
    INDEX 01 00:44:40
  TRACK 42 AUDIO
    TITLE "12:cjc029_2538"
    INDEX 01 00:46:13
  TRACK 43 AUDIO
    TITLE "0:"
    INDEX 01 00:47:58
  TRACK 44 AUDIO
    TITLE "13:cjc029_2539"
    INDEX 01 00:48:59
  TRACK 45 AUDIO
    TITLE "0:"
    INDEX 01 00:50:15
  TRACK 46 AUDIO
    TITLE "14:cjc029_2540"
    INDEX 01 00:50:19
  TRACK 47 AUDIO
    TITLE "0:"
    INDEX 01 00:54:30
  TRACK 48 AUDIO
    TITLE "13:cjc029_2541"
    INDEX 01 00:55:12
  TRACK 49 AUDIO
    TITLE "0:"
    INDEX 01 00:56:25
  TRACK 50 AUDIO
    TITLE "14:cjc029_2542"
    INDEX 01 00:56:29
  TRACK 51 AUDIO
    TITLE "0:"
    INDEX 01 00:57:31
  TRACK 52 AUDIO
    TITLE "13:cjc029_2543"
    INDEX 01 00:58:15
  TRACK 53 AUDIO
    TITLE "0:"
    INDEX 01 00:59:16
  TRACK 54 AUDIO
    TITLE "14:cjc029_2544"
    INDEX 01 00:59:20
  TRACK 55 AUDIO
    TITLE "0:"
    INDEX 01 01:01:34
  TRACK 56 AUDIO
    TITLE "13:cjc029_2545"
    INDEX 01 01:02:14
  TRACK 57 AUDIO
    TITLE "0:"
    INDEX 01 01:03:27
  TRACK 58 AUDIO
    TITLE "14:cjc029_2546"
    INDEX 01 01:03:31
  TRACK 59 AUDIO
    TITLE "0:"
    INDEX 01 01:06:36
  TRACK 60 AUDIO
    TITLE "13:cjc029_2547"
    INDEX 01 01:07:17
  TRACK 61 AUDIO
    TITLE "0:"
    INDEX 01 01:08:27
  TRACK 62 AUDIO
    TITLE "14:cjc029_2548"
    INDEX 01 01:08:35
  TRACK 63 AUDIO
    TITLE "0:"
    INDEX 01 01:12:64
  TRACK 64 AUDIO
    TITLE "13:cjc029_2549"
    INDEX 01 01:13:45
  TRACK 65 AUDIO
    TITLE "0:"
    INDEX 01 01:14:61
  TRACK 66 AUDIO
    TITLE "14:cjc029_2550"
    INDEX 01 01:14:65
  TRACK 67 AUDIO
    TITLE "0:"
    INDEX 01 01:16:12
